<svg width="1024" height="1024" viewBox="0 0 1024 1024" fill="none" xmlns="http://www.w3.org/2000/svg">
  <defs>
    <linearGradient id="bg" x1="120" y1="80" x2="900" y2="940" gradientUnits="userSpaceOnUse">
      <stop stop-color="#0F172A"/>
      <stop offset="0.5" stop-color="#111827"/>
      <stop offset="1" stop-color="#1D4ED8"/>
    </linearGradient>
    <linearGradient id="ring" x1="240" y1="180" x2="790" y2="850" gradientUnits="userSpaceOnUse">
      <stop stop-color="#38BDF8"/>
      <stop offset="1" stop-color="#22D3EE"/>
    </linearGradient>
    <linearGradient id="visor" x1="355" y1="415" x2="668" y2="570" gradientUnits="userSpaceOnUse">
      <stop stop-color="#67E8F9"/>
      <stop offset="1" stop-color="#2563EB"/>
    </linearGradient>
    <filter id="glow" x="0" y="0" width="1024" height="1024" filterUnits="userSpaceOnUse" color-interpolation-filters="sRGB">
      <feGaussianBlur stdDeviation="18" result="blur"/>
      <feMerge>
        <feMergeNode in="blur"/>
        <feMergeNode in="SourceGraphic"/>
      </feMerge>
    </filter>
  </defs>

  <rect width="1024" height="1024" rx="220" fill="url(#bg)"/>
  <circle cx="512" cy="512" r="320" stroke="url(#ring)" stroke-width="28" opacity="0.9"/>
  <circle cx="512" cy="512" r="270" fill="#0B1220" fill-opacity="0.55"/>

  <g filter="url(#glow)">
    <path d="M512 292C417.596 292 341 368.596 341 463V573C341 667.404 417.596 744 512 744C606.404 744 683 667.404 683 573V463C683 368.596 606.404 292 512 292Z" fill="#111827" stroke="#38BDF8" stroke-width="18"/>
    <rect x="377" y="418" width="270" height="116" rx="58" fill="url(#visor)"/>
    <circle cx="446" cy="476" r="18" fill="#E0F2FE"/>
    <circle cx="578" cy="476" r="18" fill="#E0F2FE"/>
    <path d="M436 603C465.333 626.333 494.667 638 524 638C553.333 638 580.667 626.333 606 603" stroke="#67E8F9" stroke-width="18" stroke-linecap="round"/>
    <path d="M404 376L452 330" stroke="#22D3EE" stroke-width="18" stroke-linecap="round"/>
    <path d="M620 330L668 376" stroke="#22D3EE" stroke-width="18" stroke-linecap="round"/>
  </g>

  <text x="512" y="860" text-anchor="middle" fill="#E0F2FE" font-size="92" font-family="Inter, Arial, sans-serif" font-weight="700" letter-spacing="10">ALEX</text>
  <text x="512" y="920" text-anchor="middle" fill="#67E8F9" font-size="40" font-family="Inter, Arial, sans-serif" font-weight="600" letter-spacing="6">SHARP / DIRECT / NO FLUFF</text>
</svg>
